<?xml version="1.0" standalone="no"?>
<!DOCTYPE svg PUBLIC "-//W3C//DTD SVG 20010904//EN"
 "http://www.w3.org/TR/2001/REC-SVG-20010904/DTD/svg10.dtd">
<svg version="1.0" xmlns="http://www.w3.org/2000/svg"
 width="350.000000pt" height="200.000000pt" viewBox="0 0 350.000000 200.000000"
 preserveAspectRatio="xMidYMid meet">

<g transform="translate(0.000000,200.000000) scale(0.100000,-0.100000)"
fill="#000000" stroke="none">
<path d="M1603 1880 l6 -119 -79 0 c-77 1 -78 1 -74 25 3 17 0 24 -12 24 -9 0
-24 10 -35 23 -10 12 -18 17 -19 12 0 -7 -15 -9 -35 -7 -23 3 -35 0 -35 -8 0
-8 10 -9 30 -5 17 4 30 4 30 1 0 -15 -36 -93 -48 -105 -12 -12 -13 -9 -11 22
2 20 0 39 -4 43 -4 4 -7 0 -7 -9 0 -9 -5 -17 -11 -17 -5 0 -7 5 -4 10 3 6 2
10 -3 10 -11 0 -26 -47 -23 -71 1 -11 -5 -16 -15 -15 -9 0 -19 -4 -21 -10 -2
-6 21 -19 52 -28 30 -10 55 -23 55 -29 0 -6 19 7 42 28 23 22 36 31 28 20 -21
-30 -73 -74 -81 -70 -5 4 -29 -69 -29 -89 0 -3 13 -12 30 -21 24 -12 60 -59
60 -78 0 -2 -11 -2 -25 1 -14 2 -22 9 -18 15 3 6 1 7 -6 3 -6 -4 -25 -1 -41 8
-28 14 -30 13 -30 -5 0 -15 -8 -19 -37 -20 l-38 -2 32 -6 c18 -3 48 -20 66
-38 32 -30 34 -35 29 -81 -2 -27 0 -52 5 -55 16 -10 43 16 49 48 3 16 7 32 10
34 15 15 49 -89 40 -124 -8 -33 -28 -41 -67 -24 -40 16 -69 76 -63 129 4 29 1
39 -13 44 -10 3 -23 9 -30 12 -7 3 -19 -8 -28 -25 -8 -17 -20 -31 -26 -31 -5
0 -3 13 6 30 23 45 18 49 -10 7 -18 -26 -33 -37 -50 -37 -35 0 -40 3 -38 20 2
10 1 11 -3 2 -5 -10 -9 -10 -22 0 -10 8 -13 8 -9 1 5 -7 0 -9 -14 -6 -13 4
-18 11 -15 22 4 11 2 10 -9 -3 -15 -19 -15 -19 -16 5 l-1 24 -8 -25 c-7 -23
-8 -23 -9 -4 -1 12 -7 24 -14 27 -9 3 -12 -4 -11 -24 1 -16 -1 -29 -6 -29 -4
0 -13 -12 -19 -28 -6 -15 -20 -33 -31 -40 -23 -14 -25 -9 -9 20 15 28 13 106
-3 125 -8 10 -23 13 -45 10 -30 -5 -33 -3 -33 19 0 13 5 24 10 24 5 0 19 9 30
20 11 11 18 20 15 20 -3 0 11 32 31 71 19 39 33 73 31 76 -3 2 -21 5 -40 6
-48 3 -79 32 -70 65 4 17 2 23 -6 18 -6 -4 -11 -16 -11 -27 0 -11 -7 -19 -17
-19 -11 0 -14 3 -7 8 5 4 10 17 10 30 0 17 -6 22 -25 22 -19 0 -22 3 -13 12
19 19 14 30 -9 23 -16 -6 -20 -4 -14 6 6 11 5 11 -5 2 -19 -17 -41 -85 -34
-105 4 -14 47 -34 67 -30 4 1 -13 -38 -38 -88 -25 -49 -50 -90 -56 -90 -6 0
-20 5 -32 11 -14 6 -12 2 7 -12 29 -23 76 -35 76 -19 0 7 12 7 78 1 6 -1 12
-12 12 -25 0 -20 -6 -25 -37 -28 -44 -6 -51 -2 -35 14 7 7 12 16 12 21 0 5 -9
-2 -21 -17 -15 -20 -20 -39 -19 -74 4 -79 3 -84 -22 -77 -49 15 -108 60 -118
90 -13 44 -24 175 -14 175 5 0 18 -7 28 -15 27 -21 32 -19 57 18 20 28 21 30
3 15 -27 -23 -44 -23 -44 1 0 10 -9 30 -20 43 l-19 25 42 -4 c33 -4 46 -1 60
15 18 19 17 20 -38 27 -30 3 -53 11 -50 16 4 5 1 9 -4 9 -6 0 -11 -4 -11 -9 0
-12 -20 -9 -45 7 -19 12 -18 13 8 9 16 -3 25 -1 20 3 -4 4 -24 10 -43 13 -19
3 -29 3 -22 0 15 -6 6 -23 -13 -23 -7 0 -12 8 -10 18 2 9 4 23 4 30 1 7 5 11
10 8 5 -3 15 2 22 11 12 14 12 16 0 8 -11 -6 -13 -3 -7 18 5 23 3 27 -26 35
-49 13 -64 0 -77 -66 -6 -34 -23 -75 -40 -98 -15 -21 -34 -61 -40 -89 -11 -44
-10 -51 5 -62 10 -7 27 -13 37 -13 18 0 19 -5 13 -47 -4 -27 -9 -96 -13 -155
l-6 -108 38 0 c36 0 37 -1 29 -27 -9 -31 -11 -95 -4 -133 6 -27 -14 -36 -56
-26 -23 6 -24 9 -24 101 0 89 -1 95 -20 95 -11 0 -23 6 -25 13 -2 6 -8 101
-12 211 l-8 199 -110 -2 c-126 -2 -152 -7 -152 -27 0 -16 13 -19 22 -4 4 6 53
10 116 10 l109 0 1 -167 c0 -106 4 -161 9 -148 7 15 9 10 7 -22 -2 -32 -7 -44
-24 -52 -19 -9 -20 -14 -12 -52 11 -49 4 -84 -14 -68 -7 7 -11 30 -9 53 3 32
-2 48 -18 66 -18 21 -20 22 -11 4 6 -12 8 -39 6 -60 -3 -22 -8 -77 -11 -124
-6 -85 -19 -128 -19 -67 -1 48 -16 191 -21 196 -2 2 -4 -16 -5 -40 l-1 -44
-10 45 c-14 66 -14 75 -2 73 6 -1 9 10 6 28 -2 16 -8 29 -13 29 -5 0 -9 7 -9
15 0 9 -12 28 -27 42 -22 21 -24 25 -8 19 15 -5 17 -4 8 5 -6 6 -16 8 -21 5
-15 -9 -7 -42 9 -38 11 3 12 1 2 -9 -17 -17 -17 -34 0 -20 19 15 27 4 26 -38
0 -33 -1 -34 -11 -13 -7 13 -20 22 -32 21 -12 0 -16 -3 -9 -6 10 -3 10 -7 0
-17 -9 -11 -14 -10 -24 3 -9 13 -12 -114 -13 -587 l0 -602 838 0 839 0 11 25
c13 28 42 24 42 -6 0 -17 8 -19 85 -19 50 0 85 4 85 10 0 6 8 10 18 10 14 0
15 -2 2 -10 -10 -6 149 -10 458 -10 l472 0 0 25 c0 14 -4 25 -10 25 -5 0 -10
-4 -10 -10 0 -5 -4 -10 -9 -10 -4 0 -6 11 -4 25 6 28 39 43 57 25 8 -8 6 -9
-8 -4 -16 6 -17 4 -8 -12 6 -11 10 -29 9 -39 -2 -18 5 -20 61 -23 37 -2 62 1
62 7 0 6 7 8 15 5 9 -4 15 0 16 7 0 8 5 5 10 -6 6 -14 8 -2 4 40 -3 44 -2 54
5 38 5 -13 14 -23 20 -23 6 0 8 5 5 10 -8 12 3 50 15 50 9 0 20 -29 29 -75 4
-21 13 -31 29 -33 12 -2 22 -8 22 -13 0 -5 72 -9 170 -9 l170 0 0 374 c0 337
-2 374 -16 380 -16 6 -16 8 0 24 9 10 16 22 16 26 0 5 -47 5 -104 1 -78 -5
-106 -4 -111 6 -15 23 26 39 104 39 67 1 73 2 53 13 -12 7 -20 16 -16 20 4 3
10 26 15 49 7 38 4 48 -23 92 l-31 48 18 34 c20 37 39 42 73 18 l22 -15 0 220
0 220 -22 3 c-13 2 -23 9 -22 16 1 6 2 26 3 42 1 23 6 30 21 30 11 0 20 5 20
10 0 6 -16 10 -36 10 l-36 0 3 -52 c2 -29 2 -113 1 -185 l-2 -133 -80 0 -80 0
0 -55 c0 -53 -1 -55 -27 -55 -58 0 -103 13 -103 28 0 13 -2 13 -18 -1 -23 -21
-51 -22 -58 -2 -4 8 -10 15 -15 15 -10 0 -43 -59 -45 -80 0 -9 -7 -33 -13 -53
-12 -36 -14 -37 -61 -37 -40 0 -50 4 -55 20 -3 11 -4 29 0 39 4 14 0 21 -12
24 -11 2 -9 3 4 2 21 -2 72 39 61 50 -2 3 -19 8 -37 11 -32 7 -33 6 -26 -17 7
-21 6 -22 -9 -10 -10 9 -16 10 -16 2 0 -6 -5 -11 -11 -11 -6 0 -9 9 -6 20 3
11 1 20 -4 20 -5 0 -9 9 -9 19 0 14 8 21 28 24 27 4 27 4 -4 6 -16 0 -39 -6
-50 -14 -19 -14 -19 -15 5 -33 18 -15 21 -21 11 -27 -9 -5 -21 1 -35 18 -22
28 -38 36 -30 15 4 -10 -10 -13 -50 -14 -51 -1 -55 1 -55 23 0 25 14 29 56 13
15 -6 29 -8 32 -6 3 3 -7 10 -22 16 -15 5 -51 21 -81 36 -55 25 -81 25 -71 -2
3 -8 -1 -14 -8 -14 -32 0 -28 51 6 81 27 24 22 32 -16 26 -34 -5 -35 -5 -31
24 3 21 -1 29 -12 29 -9 0 -13 6 -10 14 4 11 1 13 -11 9 -15 -6 -15 -4 2 15
10 12 23 19 28 16 5 -3 7 -8 4 -11 -7 -7 32 -43 47 -43 7 1 5 6 -5 14 -10 7
-18 16 -18 19 0 3 8 8 18 10 11 3 7 5 -10 6 -15 0 -30 5 -33 11 -4 6 -14 5
-27 -3 -16 -10 -22 -9 -25 1 -4 10 -10 9 -26 -5 -19 -17 -20 -17 -14 0 8 21 1
22 -19 3 -17 -17 -19 -30 -2 -20 7 4 8 3 4 -5 -4 -6 -17 -9 -29 -6 -12 2 -17
2 -11 -1 7 -3 10 -14 7 -24 -3 -11 -9 -18 -13 -15 -5 3 -6 -4 -3 -15 3 -11 9
-20 14 -20 5 0 9 -16 9 -35 0 -26 -4 -35 -17 -36 -11 0 -13 -3 -5 -6 6 -2 12
-12 12 -22 0 -9 7 -26 16 -37 8 -10 12 -13 8 -5 -4 9 -3 12 4 7 6 -3 9 -19 7
-34 -2 -16 1 -35 6 -43 8 -12 12 -11 25 6 14 19 14 32 -1 83 -5 14 -3 22 4 22
6 0 10 -6 8 -12 -1 -7 3 -12 9 -11 6 1 24 -12 40 -30 l29 -32 -30 25 c-17 14
-11 5 14 -20 25 -24 46 -54 47 -65 2 -11 5 -31 8 -45 2 -14 5 -35 5 -48 1 -13
6 -20 11 -17 15 10 12 -11 -4 -24 -11 -10 -17 -8 -25 6 -8 15 -10 13 -8 -12 1
-20 -3 -30 -13 -30 -8 0 -16 -9 -18 -20 -2 -11 -9 -26 -15 -34 -6 -7 -12 -20
-13 -28 -3 -20 -12 -28 -21 -19 -4 4 -1 11 7 16 13 9 13 10 0 10 -12 0 -15 17
-15 90 -1 95 9 94 20 -2 4 -32 11 -58 15 -58 8 0 4 39 -16 142 -9 43 -13 82
-10 86 3 5 -5 7 -19 5 -15 -3 -22 -10 -18 -19 3 -8 0 -14 -6 -14 -6 0 -11 5
-11 10 0 6 -6 10 -14 10 -8 0 -16 10 -18 22 -2 12 -9 24 -17 26 -10 3 -12 0
-7 -14 24 -59 42 -508 28 -681 -7 -87 -6 -92 13 -97 15 -4 17 -8 8 -17 -8 -8
-16 -6 -32 10 -11 11 -27 18 -35 15 -8 -3 -17 -1 -20 4 -3 5 6 8 19 6 14 -1
27 1 29 5 12 19 8 532 -4 586 -5 23 -12 68 -16 100 -12 116 -44 147 -38 38 4
-73 -1 -74 -15 -2 -6 31 -9 36 -10 17 -1 -26 -4 -28 -41 -28 -37 0 -40 -2 -40
-27 0 -38 -72 -246 -80 -232 -4 6 -12 -9 -18 -32 -6 -24 -9 -46 -6 -51 9 -14
-7 -9 -38 14 -31 21 -31 21 -23 92 3 39 8 89 10 111 4 60 41 146 80 189 19 21
35 32 36 25 0 -8 7 1 15 19 13 29 18 32 55 32 38 0 41 2 34 23 -3 12 -9 32
-12 45 -3 12 -9 22 -14 22 -5 0 -6 7 -3 15 4 8 1 22 -5 29 -9 11 -9 15 1 18 8
3 -1 14 -22 26 -20 12 -42 19 -50 15 -8 -3 -28 -6 -45 -6 -16 0 -22 -2 -12 -4
18 -5 24 -23 6 -23 -5 0 -7 -4 -4 -10 3 -5 -1 -10 -10 -10 -9 0 -13 -4 -10
-10 3 -5 2 -10 -3 -10 -14 0 -31 -55 -25 -79 3 -12 1 -21 -6 -21 -6 0 -11 -5
-11 -11 0 -6 7 -9 15 -5 8 3 19 -3 25 -14 11 -21 14 -47 3 -37 -3 4 -13 -3
-21 -14 -14 -20 -69 -49 -92 -49 -8 0 -9 22 -5 69 3 44 2 72 -5 76 -12 7 -13
25 -2 25 5 0 14 -11 20 -25 6 -14 19 -25 28 -25 21 0 14 31 -27 120 l-30 65
30 -32 c32 -35 45 -40 57 -21 5 7 3 8 -6 3 -9 -5 -11 -4 -6 3 4 7 12 12 17 12
18 0 39 28 39 50 0 16 4 20 19 15 11 -3 25 1 34 9 19 19 126 56 121 41 -3 -6
2 -19 10 -30 14 -19 15 -19 48 -2 86 46 82 42 84 104 1 31 7 59 13 61 7 2 11
57 11 168 l0 164 -55 0 -55 0 0 -119 c0 -86 -3 -121 -12 -124 -10 -4 -10 -6
-1 -6 7 -1 10 -8 7 -16 -4 -8 -2 -15 4 -15 5 0 12 -14 16 -32 7 -35 -16 -70
-43 -67 -36 3 -61 -2 -61 -12 0 -5 5 -7 10 -4 6 4 9 1 8 -7 -2 -7 4 -13 12
-13 9 0 14 8 12 20 -2 18 -2 19 8 2 6 -9 8 -22 5 -27 -7 -12 -45 -14 -45 -2 0
4 -51 7 -114 7 l-115 0 22 -25 c12 -14 28 -31 36 -37 20 -17 14 -20 -44 -24
-52 -4 -74 11 -33 23 21 6 21 6 -5 7 -18 1 -35 -7 -46 -21 -14 -16 -29 -21
-72 -22 l-54 -1 1 -75 c1 -41 -1 -67 -3 -57 -2 9 -12 17 -21 17 -14 0 -14 2
-3 9 7 5 10 14 6 20 -5 8 -11 9 -19 2 -8 -7 -16 -7 -22 -1 -5 5 -45 11 -89 13
l-80 3 83 2 c52 1 82 6 82 13 0 8 -25 10 -79 6 l-80 -4 -4 26 -4 26 -2 -27
c-1 -21 -6 -28 -20 -28 -35 0 -32 85 6 139 1 2 28 4 60 5 l58 1 22 80 c17 65
21 105 20 215 l-1 135 -3 -122 c-5 -161 -23 -163 -23 -3 l0 120 -37 0 -36 0 6
-120z m754 -27 c-3 -10 -5 -4 -5 12 0 17 2 24 5 18 2 -7 2 -21 0 -30z m12 -38
c5 2 9 -28 10 -68 1 -58 -1 -68 -10 -52 -7 11 -21 28 -33 37 -11 9 -18 20 -14
24 4 3 14 -1 23 -10 20 -20 22 -20 22 -1 0 8 -4 12 -9 9 -4 -3 -8 14 -7 38 0
24 3 37 6 30 2 -6 8 -10 12 -7z m-939 -82 c0 -14 -10 -16 -34 -7 -25 10 -19
24 9 22 14 -1 25 -8 25 -15z m-635 -33 c3 -5 2 -10 -4 -10 -5 0 -13 5 -16 10
-3 6 -2 10 4 10 5 0 13 -4 16 -10z m-325 -88 c0 -15 -2 -15 -10 -2 -13 20 -13
33 0 25 6 -3 10 -14 10 -23z m185 8 c-3 -5 -13 -10 -21 -10 -8 0 -12 5 -9 10
3 6 13 10 21 10 8 0 12 -4 9 -10z m-217 -107 c67 -6 85 -20 61 -49 -12 -14
-14 -14 -26 2 -12 16 -62 25 -145 25 -21 0 -24 25 -5 33 6 3 21 2 32 -1 11 -3
48 -7 83 -10z m1105 -100 c-7 -2 -19 -2 -25 0 -7 3 -2 5 12 5 14 0 19 -2 13
-5z m607 -47 c0 -2 -7 -6 -15 -10 -8 -3 -15 -1 -15 4 0 6 7 10 15 10 8 0 15
-2 15 -4z m306 -14 c6 -4 16 -17 23 -29 10 -19 8 -24 -9 -33 -18 -10 -20 -8
-20 24 0 19 -6 37 -12 39 -7 3 -8 6 -3 6 6 0 15 -3 21 -7z m-16 -29 c0 -5 -5
-15 -10 -23 -8 -12 -10 -11 -10 8 0 12 5 22 10 22 6 0 10 -3 10 -7z m-550 -24
c0 -11 -4 -17 -10 -14 -5 3 -10 1 -10 -4 0 -6 5 -11 11 -11 5 0 7 -4 4 -10 -3
-5 0 -7 8 -4 19 7 32 -27 15 -38 -10 -6 -10 -8 0 -8 7 0 12 -13 12 -30 0 -27
-3 -30 -32 -30 -55 0 -91 56 -50 79 9 6 12 11 6 11 -6 0 -9 10 -7 24 4 18 0
26 -19 32 -22 8 -22 8 7 15 54 12 65 10 65 -12z m28 -1 c-2 -12 -8 -23 -14
-25 -7 -2 -10 6 -7 22 6 30 26 34 21 3z m-225 5 c-24 -2 -62 -2 -85 0 -24 2
-5 4 42 4 47 0 66 -2 43 -4z m-543 -23 c0 -5 -10 -10 -22 -10 -19 0 -20 2 -8
10 19 13 30 13 30 0z m1018 -12 c-6 -17 -32 -21 -74 -13 -53 10 -40 25 22 25
40 0 55 -3 52 -12z m-623 -8 c-3 -5 -15 -10 -26 -10 -10 0 -19 5 -19 10 0 6
12 10 26 10 14 0 23 -4 19 -10z m62 -67 c-2 -16 -4 -3 -4 27 0 30 2 43 4 28 2
-16 2 -40 0 -55z m32 0 c-2 -79 -6 -70 -11 25 -2 28 0 52 5 52 4 0 6 -35 6
-77z m741 73 c0 -3 -4 -8 -10 -11 -5 -3 -10 -1 -10 4 0 6 5 11 10 11 6 0 10
-2 10 -4z m-1235 -16 c-3 -5 -14 -10 -23 -9 -14 0 -13 2 3 9 27 11 27 11 20 0z
m125 -20 c0 -18 -6 -33 -15 -37 -22 -8 -26 -1 -19 35 8 42 34 42 34 2z m2177
-12 c-3 -7 -5 -2 -5 12 0 14 2 19 5 13 2 -7 2 -19 0 -25z m-1340 0 c-3 -8 -6
-5 -6 6 -1 11 2 17 5 13 3 -3 4 -12 1 -19z m-1178 -13 c30 -26 30 -26 41 -5
14 26 50 27 50 1 0 -15 -8 -21 -32 -23 -29 -3 -33 -7 -39 -40 l-6 -38 33 25
c34 26 50 32 39 15 -3 -5 0 -10 8 -10 8 0 20 -7 27 -15 7 -8 17 -12 22 -9 5 3
8 -2 6 -12 -2 -12 3 -19 12 -19 17 0 21 24 7 43 -7 9 0 12 31 12 23 0 57 8 77
17 l36 17 32 -34 c29 -31 30 -32 3 -10 -29 25 -27 12 2 -22 11 -13 12 -18 2
-18 -12 0 -11 -15 6 -67 3 -11 -1 -8 -11 7 l-16 25 8 -25 c14 -43 4 -241 -14
-283 -12 -29 -14 -40 -5 -49 7 -7 12 -20 12 -30 0 -24 17 -23 25 2 3 11 10 20
15 20 4 0 11 10 14 23 7 20 8 20 21 -13 l13 -35 1 30 c2 56 19 5 26 -75 3 -41
8 -85 11 -97 4 -21 1 -23 -35 -23 -22 0 -43 -4 -46 -10 -9 -15 -25 -12 -25 4
0 8 -9 21 -20 29 -11 8 -18 16 -15 18 7 7 -41 120 -50 119 -9 -2 -25 20 -25
35 0 6 5 3 11 -5 9 -12 10 -12 7 -1 -6 21 -28 26 -28 6 0 -30 31 -125 39 -120
5 2 16 -14 26 -36 11 -23 21 -35 25 -28 5 6 10 0 14 -16 4 -14 4 -31 0 -36 -3
-6 4 -21 16 -33 19 -22 20 -25 5 -40 -26 -25 -45 -20 -45 13 0 52 -7 61 -38
45 -39 -20 -52 -17 -52 13 0 24 -1 25 -13 9 -10 -14 -25 -16 -77 -14 l-65 3
-8 50 c-4 28 -8 118 -8 200 -1 228 0 257 11 250 6 -3 10 4 10 18 0 14 3 40 6
58 4 26 3 30 -5 19 -9 -12 -11 -10 -11 12 0 15 -5 30 -12 34 -7 5 -8 3 -4 -5
5 -7 5 -49 1 -93 -5 -60 -10 -77 -17 -64 -5 9 -6 30 -3 46 4 17 2 30 -3 30 -5
0 -12 9 -15 21 -3 12 -10 18 -16 14 -6 -3 -11 1 -11 10 0 9 -4 14 -9 11 -5 -3
-20 3 -32 14 l-24 20 28 25 c16 14 25 30 22 35 -4 6 -13 2 -23 -10 -9 -12 -26
-22 -36 -24 -12 -2 -24 -16 -32 -37 -6 -19 -17 -33 -24 -31 -9 2 -8 -5 4 -23
9 -14 14 -25 10 -25 -11 0 -43 45 -44 60 0 24 121 170 142 170 3 0 20 -11 37
-25z m619 8 c-2 -10 -12 -18 -23 -18 -11 0 -21 8 -23 18 -3 13 3 17 23 17 20
0 26 -4 23 -17z m-393 -23 c-3 -5 -16 -10 -28 -9 -21 0 -21 1 -2 9 28 12 37
12 30 0z m1378 -3 c3 -8 -1 -14 -9 -14 -15 0 -18 9 -7 20 9 9 10 9 16 -6z
m-1790 -14 c-7 -2 -21 -2 -30 0 -10 3 -4 5 12 5 17 0 24 -2 18 -5z m410 -20
c-7 -2 -21 -2 -30 0 -10 3 -4 5 12 5 17 0 24 -2 18 -5z m1675 -11 c3 -9 -24
-11 -100 -10 l-103 2 93 3 c64 3 91 7 86 15 -4 6 -1 9 6 6 8 -2 16 -10 18 -16z
m-1418 -15 c0 -9 -11 -12 -37 -8 l-38 5 35 7 c19 3 36 7 38 8 1 0 2 -5 2 -12z
m120 9 c0 -3 -4 -8 -10 -11 -5 -3 -10 -1 -10 4 0 6 5 11 10 11 6 0 10 -2 10
-4z m1627 -12 c-7 -8 -108 -7 -115 1 -3 3 23 5 58 5 35 0 60 -3 57 -6z m96
-11 c-13 -2 -33 -2 -45 0 -13 2 -3 4 22 4 25 0 35 -2 23 -4z m-2510 -10 c-13
-2 -35 -2 -50 0 -16 2 -5 4 22 4 28 0 40 -2 28 -4z m1484 -12 c10 -10 28 -23
39 -29 19 -10 23 -25 33 -139 17 -204 20 -313 7 -313 -6 0 -4 -6 4 -13 17 -13
13 -65 -9 -104 -6 -13 -7 -23 -2 -23 5 0 11 6 14 13 2 6 4 -4 5 -23 1 -31 -1
-33 -12 -17 -15 20 -36 23 -36 5 0 -7 5 -30 11 -51 9 -32 13 -36 25 -26 11 9
18 9 26 1 17 -17 9 -21 -61 -27 -40 -3 -60 -1 -56 5 3 6 2 10 -4 10 -5 0 -11
-6 -14 -12 -2 -7 -8 -9 -13 -5 -8 8 -8 70 0 127 2 14 4 46 5 73 1 36 5 47 17
47 13 0 15 -7 10 -32 -4 -18 -9 -61 -12 -95 -6 -62 -6 -63 17 -60 13 2 25 10
25 18 1 8 3 19 5 24 8 30 3 95 -8 100 -7 2 -13 14 -13 25 0 15 7 20 28 21 17
1 20 3 9 6 -9 2 -15 9 -11 14 3 5 9 7 14 4 5 -3 7 28 4 72 -3 43 -6 112 -5
153 1 75 -14 155 -35 198 -9 18 -12 -17 -13 -170 -1 -106 -6 -211 -11 -233 -6
-27 -8 18 -5 135 2 96 1 160 -2 143 -4 -33 -14 -38 -43 -25 -13 6 -12 13 6 49
12 23 25 39 29 35 4 -4 5 26 3 66 -1 39 0 72 4 72 4 0 15 -8 25 -19z m191 -91
c0 -23 -1 -22 -8 5 -4 17 -8 46 -8 65 l0 35 9 -40 c4 -22 8 -51 7 -65z m-1063
70 c10 -11 16 -20 13 -20 -3 0 -13 9 -23 20 -10 11 -16 20 -13 20 3 0 13 -9
23 -20z m1265 0 c0 -5 -2 -10 -4 -10 -3 0 -8 5 -11 10 -3 6 -1 10 4 10 6 0 11
-4 11 -10z m569 6 c-2 -2 -22 -6 -44 -9 -27 -4 -35 -3 -25 3 14 9 79 15 69 6z
m-1881 -31 c-3 -3 -9 2 -12 12 -6 14 -5 15 5 6 7 -7 10 -15 7 -18z m1955 18
c-7 -2 -21 -2 -30 0 -10 3 -4 5 12 5 17 0 24 -2 18 -5z m-1510 -30 c-7 -2 -21
-2 -30 0 -10 3 -4 5 12 5 17 0 24 -2 18 -5z m155 0 c-10 -2 -26 -2 -35 0 -10
3 -2 5 17 5 19 0 27 -2 18 -5z m75 0 c-7 -2 -19 -2 -25 0 -7 3 -2 5 12 5 14 0
19 -2 13 -5z m404 -55 c-2 -13 -4 -3 -4 22 0 25 2 35 4 23 2 -13 2 -33 0 -45z
m-2151 -53 c-4 -34 -2 -45 4 -35 7 10 10 -24 10 -102 0 -107 -2 -118 -18 -118
-10 0 -23 -5 -29 -11 -13 -13 -18 1 -28 76 -4 34 -3 45 4 35 16 -23 21 -8 11
35 -5 22 -5 42 -1 45 5 3 8 19 8 35 -1 54 7 104 15 99 4 -3 8 7 9 23 l1 28 9
-30 c6 -16 8 -52 5 -80z m-88 10 c0 -16 -2 -15 -8 5 -4 14 -8 36 -8 50 0 22 1
22 8 -5 4 -16 8 -39 8 -50z m1392 65 c-20 -13 -40 -13 -40 0 0 6 12 10 28 10
21 0 24 -2 12 -10z m1180 -10 c0 -5 -20 -10 -44 -10 -25 0 -48 5 -51 10 -4 6
13 10 44 10 28 0 51 -4 51 -10z m-140 -21 c0 -18 -2 -19 -15 -9 -15 12 -12 30
6 30 5 0 9 -10 9 -21z m-1805 2 c-12 -11 -37 -14 -95 -10 -42 2 -40 3 20 9 36
4 69 7 75 8 6 1 6 -1 0 -7z m909 -3 c-3 -4 -22 -8 -42 -9 -33 0 -35 -1 -14
-10 13 -5 29 -6 34 -2 7 3 8 1 4 -5 -5 -8 2 -12 21 -11 25 0 26 1 8 9 -13 6 5
8 55 8 62 -1 68 -2 35 -8 -31 -6 -21 -7 48 -9 76 -1 87 1 88 17 1 16 2 16 6 0
3 -11 14 -18 28 -18 18 0 22 -4 18 -20 -5 -19 -13 -20 -177 -18 -94 1 -142 3
-106 5 78 5 103 21 31 20 -28 0 -54 2 -57 5 -3 3 -22 5 -42 3 -30 -2 -31 -1
-7 3 l30 5 -34 6 c-51 9 -51 29 1 33 68 5 77 4 72 -4z m-134 -13 c0 -9 -9 -15
-22 -15 -19 0 -20 -2 -8 -11 12 -8 10 -9 -8 -4 -13 4 -30 1 -40 -7 -15 -12
-16 -11 -3 5 7 9 20 17 28 17 7 0 16 7 19 15 4 8 12 15 20 15 8 0 14 -7 14
-15z m1160 -5 c0 -5 10 -11 23 -11 18 -1 16 -3 -8 -9 -16 -4 -43 -8 -58 -9
-50 -2 -19 31 36 38 4 1 7 -3 7 -9z m-302 -40 c-2 -5 -9 -6 -17 -1 -9 6 -11
16 -7 27 7 18 8 18 17 1 6 -10 9 -22 7 -27z m19 18 c-3 -8 -6 -5 -6 6 -1 11 2
17 5 13 3 -3 4 -12 1 -19z m-1618 -21 c-2 -1 -13 -9 -24 -17 -19 -14 -19 -14
-6 3 7 9 18 17 24 17 6 0 8 -1 6 -3z m2519 -24 l37 -17 -93 -9 c-102 -10 -132
-6 -112 18 22 27 116 31 168 8z m-1128 -55 c-1 -38 -2 -41 -14 -26 -7 10 -12
28 -10 40 3 29 2 28 14 28 6 0 10 -19 10 -42z m-103 -20 c-3 -8 -6 -5 -6 6 -1
11 2 17 5 13 3 -3 4 -12 1 -19z m-1230 -4 c-3 -3 -12 -4 -19 -1 -8 3 -5 6 6 6
11 1 17 -2 13 -5z m5 -56 c-7 -7 -12 -8 -12 -2 0 14 12 26 19 19 2 -3 -1 -11
-7 -17z m1185 -14 c-3 -3 -12 -4 -19 -1 -8 3 -5 6 6 6 11 1 17 -2 13 -5z
m-1890 -41 c-3 -10 -5 -4 -5 12 0 17 2 24 5 18 2 -7 2 -21 0 -30z m620 -25
c-3 -8 -6 -5 -6 6 -1 11 2 17 5 13 3 -3 4 -12 1 -19z m1033 2 c0 -5 -2 -10 -4
-10 -3 0 -8 5 -11 10 -3 6 -1 10 4 10 6 0 11 -4 11 -10z m348 -125 c-2 -1 -13
-6 -25 -9 -20 -6 -23 -4 -24 21 0 24 -1 25 -8 8 -5 -11 -6 -24 -3 -29 3 -6 -3
-6 -14 -1 -10 4 -31 10 -46 13 -21 3 -28 10 -28 26 0 21 4 21 70 18 54 -3 70
-1 72 9 0 8 3 -1 5 -19 3 -19 3 -35 1 -37z m-282 34 c-14 -11 -31 -17 -36 -14
-17 11 9 35 38 35 l25 0 -27 -21z m-1751 1 c3 -5 -3 -10 -15 -10 -12 0 -18 5
-15 10 3 6 10 10 15 10 5 0 12 -4 15 -10z m2334 -12 c-5 -10 -14 -18 -20 -18
-6 0 -7 -4 -4 -10 3 -5 1 -10 -4 -10 -6 0 -11 9 -11 20 0 25 -20 27 -21 3 0
-15 -2 -15 -8 2 -10 25 3 35 46 33 28 -1 31 -4 22 -20z m-524 -15 c10 -9 26
-37 37 -62 23 -55 41 -71 82 -71 56 0 73 -10 74 -38 0 -15 -2 -30 -4 -33 -4
-6 -70 3 -160 21 l-53 11 -3 95 c-2 52 0 94 4 94 4 0 14 -8 23 -17z m125 -33
c-8 -5 -7 -12 5 -24 9 -9 13 -16 8 -16 -4 -1 3 -7 17 -15 l25 -14 -23 -1 c-32
0 -60 30 -57 60 3 32 2 30 21 23 11 -4 12 -8 4 -13z m674 -55 c3 -8 1 -15 -4
-15 -6 0 -10 7 -10 15 0 8 2 15 4 15 2 0 6 -7 10 -15z m190 -217 c9 -35 8 -38
-13 -38 -11 0 -26 -7 -35 -15 -8 -8 -25 -15 -38 -14 -13 0 -32 -1 -43 -4 -11
-2 -14 -2 -7 0 7 3 17 16 22 29 5 13 16 24 25 24 8 0 15 7 15 15 0 18 30 20
30 3 0 -7 5 -5 11 5 14 23 25 21 33 -5z m46 -154 c0 -8 4 -14 10 -14 5 0 7 -7
3 -15 -7 -20 -29 -13 -25 8 1 8 -2 18 -8 22 -16 10 -12 25 5 19 8 -4 15 -12
15 -20z m-1240 -34 c0 -5 -2 -10 -4 -10 -3 0 -8 5 -11 10 -3 6 -1 10 4 10 6 0
11 -4 11 -10z"/>
<path d="M1215 1130 c3 -5 11 -10 16 -10 6 0 7 5 4 10 -3 6 -11 10 -16 10 -6
0 -7 -4 -4 -10z"/>
<path d="M936 1063 c-6 -14 -5 -15 5 -6 7 7 10 15 7 18 -3 3 -9 -2 -12 -12z"/>
<path d="M962 1040 c0 -19 2 -27 5 -17 2 9 2 25 0 35 -3 9 -5 1 -5 -18z"/>
<path d="M1161 1034 c0 -11 3 -14 6 -6 3 7 2 16 -1 19 -3 4 -6 -2 -5 -13z"/>
<path d="M1031 944 c0 -11 3 -14 6 -6 3 7 2 16 -1 19 -3 4 -6 -2 -5 -13z"/>
<path d="M996 888 c9 -57 14 -61 14 -10 0 22 -5 44 -10 47 -7 4 -8 -8 -4 -37z"/>
<path d="M1236 849 c-3 -18 -4 -34 -2 -36 2 -3 7 10 11 27 4 17 5 34 2 36 -2
3 -7 -10 -11 -27z"/>
<path d="M1076 705 c4 -33 10 -67 15 -75 5 -9 6 9 3 45 -4 33 -11 67 -16 75
-5 9 -6 -8 -2 -45z"/>
<path d="M1161 724 c0 -11 3 -14 6 -6 3 7 2 16 -1 19 -3 4 -6 -2 -5 -13z"/>
<path d="M1305 650 c-3 -5 -1 -10 4 -10 6 0 11 5 11 10 0 6 -2 10 -4 10 -3 0
-8 -4 -11 -10z"/>
<path d="M1240 631 c0 -6 4 -13 10 -16 6 -3 7 1 4 9 -7 18 -14 21 -14 7z"/>
<path d="M1276 595 c-3 -8 -1 -15 4 -15 6 0 10 7 10 15 0 8 -2 15 -4 15 -2 0
-6 -7 -10 -15z"/>
<path d="M2220 380 c-9 -6 -10 -10 -3 -10 6 0 15 5 18 10 8 12 4 12 -15 0z"/>
<path d="M230 840 c0 -5 -7 -10 -15 -10 -12 0 -14 -7 -10 -27 4 -16 8 -38 11
-51 2 -13 8 -21 12 -18 8 5 16 116 8 116 -3 0 -6 -4 -6 -10z"/>
<path d="M213 712 c-9 -6 -7 -11 7 -20 17 -11 20 -10 20 8 0 21 -7 25 -27 12z"/>
<path d="M1728 1823 c-2 -98 0 -182 4 -188 4 -5 8 75 8 178 0 103 -2 187 -4
187 -2 0 -6 -80 -8 -177z"/>
<path d="M1760 1853 c0 -82 -3 -164 -6 -184 -6 -33 -4 -37 23 -47 l30 -10 7
97 c3 53 6 140 6 194 l0 97 -30 0 -30 0 0 -147z"/>
<path d="M1833 1950 c0 -30 2 -43 4 -27 2 15 2 39 0 55 -2 15 -4 2 -4 -28z"/>
<path d="M1864 1860 c0 -80 2 -112 3 -72 2 39 2 105 0 145 -1 39 -3 7 -3 -73z"/>
<path d="M1887 1853 c-3 -82 -1 -149 3 -151 5 -2 7 -9 4 -17 -3 -7 6 -24 20
-38 14 -15 23 -32 20 -40 -3 -8 0 -18 6 -22 6 -3 10 -3 9 2 -4 21 2 33 16 33
8 0 15 -4 15 -10 0 -5 7 -10 15 -10 13 0 12 3 -2 19 -9 11 -23 17 -32 13 -13
-5 -14 -3 -3 10 10 12 10 34 4 94 l-9 79 -2 -70 c-1 -49 -4 -66 -11 -55 -5 8
-11 83 -12 165 l-2 150 -6 -145 c-3 -80 -2 -149 2 -155 12 -13 10 -22 -6 -28
-11 -4 -14 24 -15 156 -1 89 -3 163 -5 164 -2 2 -6 -63 -9 -144z"/>
<path d="M1954 1910 c0 -52 1 -74 3 -47 2 26 2 68 0 95 -2 26 -3 4 -3 -48z"/>
<path d="M1989 1825 c-3 -99 -4 -182 -2 -184 13 -18 17 38 13 189 l-5 175 -6
-180z"/>
<path d="M2020 1832 c0 -100 4 -172 9 -172 9 0 3 329 -5 339 -2 2 -4 -73 -4
-167z"/>
<path d="M2054 1905 c0 -55 1 -76 3 -47 2 29 2 74 0 100 -2 26 -3 2 -3 -53z"/>
<path d="M2082 1860 c-1 -85 2 -140 7 -135 5 6 6 68 2 145 l-8 135 -1 -145z"/>
<path d="M2114 1870 c0 -74 1 -105 3 -67 2 37 2 97 0 135 -2 37 -3 6 -3 -68z"/>
<path d="M2134 1833 c3 -93 5 -185 5 -205 1 -31 5 -38 21 -38 20 0 26 17 22
63 -1 11 7 32 19 48 14 19 16 29 7 27 -10 -2 -13 25 -13 135 l0 137 -33 0 -33
0 5 -167z"/>
<path d="M2220 1877 c-4 -97 -2 -131 8 -139 7 -6 15 -8 19 -4 3 3 1 6 -5 6 -8
0 -12 42 -14 133 l-3 132 -5 -128z"/>
<path d="M2253 1885 c-2 -73 1 -114 7 -110 12 7 14 225 3 225 -5 0 -9 -52 -10
-115z"/>
<path d="M0 1937 c0 -13 22 -15 138 -16 75 -1 147 -4 160 -8 12 -3 22 -1 22 5
0 15 -24 18 -145 21 -60 1 -125 4 -142 8 -25 4 -33 2 -33 -10z"/>
<path d="M1370 1906 c0 -15 18 -31 26 -23 7 7 -7 37 -17 37 -5 0 -9 -6 -9 -14z"/>
<path d="M1418 1873 c7 -3 16 -2 19 1 4 3 -2 6 -13 5 -11 0 -14 -3 -6 -6z"/>
<path d="M1410 1849 c0 -13 24 -24 55 -25 17 -1 40 -5 53 -9 17 -6 22 -3 22 9
0 12 -10 16 -38 16 -21 0 -42 3 -46 7 -9 10 -46 11 -46 2z"/>
<path d="M1831 1798 c-1 -31 3 -59 7 -62 12 -7 14 54 3 89 -8 26 -9 23 -10
-27z"/>
<path d="M1270 1826 c0 -2 9 -6 20 -9 11 -3 18 -1 14 4 -5 9 -34 13 -34 5z"/>
<path d="M2050 1747 c0 -45 3 -53 19 -54 11 -1 26 6 33 14 12 15 11 15 -9 4
-22 -11 -23 -10 -23 39 0 27 -4 50 -10 50 -5 0 -10 -24 -10 -53z"/>
<path d="M1855 1700 c3 -5 8 -10 11 -10 2 0 4 5 4 10 0 6 -5 10 -11 10 -5 0
-7 -4 -4 -10z"/>
<path d="M3 1652 c6 -50 14 -63 27 -42 11 18 3 49 -17 70 -14 13 -15 10 -10
-28z"/>
<path d="M1690 1673 c0 -12 5 -25 10 -28 13 -8 13 15 0 35 -8 12 -10 11 -10
-7z"/>
<path d="M1834 1671 c4 -5 2 -21 -4 -35 -6 -17 -6 -26 0 -26 6 0 10 -7 10 -16
0 -9 6 -14 13 -11 6 2 11 10 9 16 -1 7 1 10 6 7 5 -3 18 1 28 9 17 13 18 14 2
15 -10 0 -18 5 -18 11 0 12 -29 38 -43 39 -5 0 -6 -4 -3 -9z"/>
<path d="M2054 1666 c-8 -22 1 -30 21 -19 15 9 15 11 1 22 -13 11 -17 10 -22
-3z"/>
<path d="M2237 1673 c-4 -3 -2 -12 4 -19 12 -15 49 -2 49 17 0 6 -8 5 -21 -2
-15 -8 -19 -8 -15 0 8 12 -6 15 -17 4z"/>
<path d="M2196 1655 c4 -8 10 -12 15 -9 14 8 10 24 -6 24 -9 0 -12 -6 -9 -15z"/>
<path d="M1190 1631 c-32 -4 -40 -8 -27 -13 22 -10 39 -50 23 -60 -8 -5 -7
-11 2 -20 6 -6 12 -21 11 -32 0 -12 -3 -15 -6 -8 -2 6 -9 12 -14 12 -6 0 -7
-4 -4 -10 8 -13 2 -13 -30 2 -20 9 -31 8 -50 -2 l-24 -13 30 -27 c17 -17 27
-34 23 -43 -3 -9 3 -17 18 -21 37 -9 41 -7 35 20 -5 26 -4 26 38 22 28 -4 42
-1 41 6 0 6 8 48 18 94 11 45 17 84 15 86 -10 9 -58 12 -99 7z m-45 -151 c3
-5 -1 -10 -9 -10 -8 0 -18 5 -21 10 -3 6 1 10 9 10 8 0 18 -4 21 -10z m42 -16
c-3 -3 -12 -4 -19 -1 -8 3 -5 6 6 6 11 1 17 -2 13 -5z"/>
<path d="M1032 1613 c-5 -10 -14 -45 -21 -78 -7 -33 -15 -68 -17 -77 -4 -15 1
-18 30 -18 34 0 36 2 35 33 -1 17 -4 46 -8 62 -10 42 7 74 43 84 31 9 30 9
-11 10 -31 1 -45 -4 -51 -16z"/>
<path d="M2080 1615 c-8 -9 -8 -15 -2 -15 12 0 26 19 19 26 -2 2 -10 -2 -17
-11z"/>
<path d="M2542 1606 c-8 -19 -8 -26 1 -30 8 -3 7 -8 -5 -15 -10 -7 -14 -19
-11 -32 6 -20 3 -21 -30 -15 -29 5 -37 4 -37 -8 0 -11 8 -13 38 -9 20 3 42 10
48 15 10 7 20 118 11 118 -2 0 -9 -11 -15 -24z"/>
<path d="M680 1583 c0 -15 -2 -16 -10 -3 -8 13 -10 12 -10 -2 0 -10 7 -18 15
-18 8 0 15 6 15 14 0 8 6 17 13 19 7 3 5 6 -5 6 -11 1 -18 -6 -18 -16z"/>
<path d="M1860 1561 c-9 -17 -7 -19 16 -17 36 4 51 31 19 34 -15 1 -28 -6 -35
-17z"/>
<path d="M694 1549 c-3 -6 -1 -16 5 -22 8 -8 11 -5 11 11 0 24 -5 28 -16 11z"/>
<path d="M1139 1544 c-12 -14 -11 -16 5 -13 11 2 21 10 24 17 5 17 -13 15 -29
-4z"/>
<path d="M2 1520 c0 -14 2 -19 5 -12 2 6 2 18 0 25 -3 6 -5 1 -5 -13z"/>
<path d="M960 1530 c0 -5 -14 -16 -32 -23 -18 -7 -28 -16 -22 -20 12 -7 74 28
74 43 0 5 -4 10 -10 10 -5 0 -10 -4 -10 -10z"/>
<path d="M3021 1390 c-30 -88 -50 -158 -46 -168 6 -15 8 -14 21 8 9 14 13 17
10 7 -3 -10 -6 -21 -6 -23 0 -3 -11 -9 -25 -14 -23 -9 -37 -50 -17 -50 14 0
40 32 51 63 10 25 14 27 48 23 l38 -6 -33 12 c-39 13 -39 22 -2 121 15 40 26
57 35 53 10 -3 12 0 8 12 -3 9 -3 14 1 10 5 -4 14 -1 21 5 16 15 1 47 -21 47
-10 0 -14 8 -12 22 2 11 -2 23 -7 25 -6 2 -34 -65 -64 -147z m18 -39 c-29 -80
-35 -73 -8 8 12 34 23 60 26 57 3 -2 -5 -32 -18 -65z"/>
<path d="M2562 1518 c-14 -14 -16 -42 -2 -33 14 9 32 45 22 45 -4 0 -13 -5
-20 -12z"/>
<path d="M2639 1473 c-13 -16 -12 -17 4 -4 16 13 21 21 13 21 -2 0 -10 -8 -17
-17z"/>
<path d="M2755 1480 c3 -6 -1 -13 -9 -16 -9 -3 -16 -11 -16 -16 0 -14 -36 -58
-43 -52 -3 3 -3 13 0 22 4 8 2 13 -3 9 -6 -3 -16 -2 -23 2 -10 6 -9 10 4 14
11 5 14 3 9 -6 -4 -6 -4 -9 0 -5 4 3 8 10 8 15 1 4 8 13 17 20 28 21 -12 10
-45 -12 -16 -11 -33 -18 -37 -17 -5 1 -6 -1 -4 -5 8 -14 -12 -53 -28 -53 -8 0
-15 -5 -15 -11 0 -5 5 -7 10 -4 6 4 17 1 25 -5 12 -10 15 -9 15 8 0 46 10 53
38 27 31 -29 63 -32 84 -7 19 21 33 102 18 102 -6 0 -8 -5 -5 -10z"/>
<path d="M51 1413 c-7 -8 -15 -32 -18 -54 -5 -35 -3 -39 16 -39 13 0 29 -14
45 -38 13 -21 37 -47 52 -57 l29 -18 -28 30 -27 30 24 11 c19 8 23 16 18 34
l-7 23 -3 -22 c-6 -39 -33 -23 -39 22 -3 19 -2 19 11 2 12 -16 14 -16 20 -2 3
9 2 13 -4 10 -10 -6 -13 8 -12 50 1 17 0 17 -4 3 -3 -10 -10 -18 -15 -18 -12
0 -12 23 1 36 6 6 -1 10 -18 10 -15 1 -33 -5 -41 -13z"/>
<path d="M1010 1411 c0 -4 11 -6 25 -3 14 2 25 6 25 8 0 2 -11 4 -25 4 -14 0
-25 -4 -25 -9z"/>
<path d="M2300 1390 c-9 -6 -10 -10 -3 -10 6 0 15 5 18 10 8 12 4 12 -15 0z"/>
<path d="M2308 1357 c-15 -12 -15 -14 5 -27 19 -12 20 -11 10 2 -10 11 -10 17
-1 26 16 16 7 15 -14 -1z"/>
<path d="M2695 1300 c3 -5 11 -10 16 -10 6 0 7 5 4 10 -3 6 -11 10 -16 10 -6
0 -7 -4 -4 -10z"/>
<path d="M2900 1251 l-35 -7 30 -6 c16 -3 32 -3 35 1 3 5 12 11 20 14 13 5 13
5 0 5 -8 0 -31 -4 -50 -7z"/>
<path d="M3153 1243 c9 -2 23 -2 30 0 6 3 -1 5 -18 5 -16 0 -22 -2 -12 -5z"/>
<path d="M2185 1209 c-4 -17 -4 -33 -1 -36 3 -4 6 1 6 10 0 10 5 14 15 11 19
-8 20 13 1 32 -13 12 -15 10 -21 -17z"/>
<path d="M2260 1210 c0 -5 5 -10 10 -10 6 0 10 5 10 10 0 6 -4 10 -10 10 -5 0
-10 -4 -10 -10z"/>
<path d="M2228 1163 c7 -3 16 -2 19 1 4 3 -2 6 -13 5 -11 0 -14 -3 -6 -6z"/>
<path d="M2125 1140 c-3 -5 -13 -7 -23 -4 -13 5 -14 4 -3 -4 11 -8 11 -17 -3
-53 -13 -37 -20 -68 -25 -121 -1 -4 -8 -14 -17 -22 -13 -14 -13 -16 -1 -16 8
0 17 7 21 15 11 30 28 16 24 -20 -2 -19 -1 -35 3 -35 13 0 15 69 3 74 -9 3
-10 15 -2 43 5 21 13 59 18 85 5 27 12 52 15 58 3 5 4 10 1 10 -3 0 -7 -4 -11
-10z"/>
<path d="M2895 1100 c6 -10 64 -24 71 -17 3 2 -13 9 -36 15 -22 5 -38 6 -35 2z"/>
<path d="M221 1084 c0 -11 3 -14 6 -6 3 7 2 16 -1 19 -3 4 -6 -2 -5 -13z"/>
<path d="M2476 1046 c-6 -24 10 -84 20 -74 2 3 0 17 -6 32 -7 19 -7 33 0 47 6
11 7 19 1 19 -5 0 -12 -11 -15 -24z"/>
<path d="M2146 1025 c-9 -26 -7 -32 5 -12 6 10 9 21 6 23 -2 3 -7 -2 -11 -11z"/>
<path d="M3481 856 c-9 -10 -8 -15 4 -20 10 -4 15 1 15 14 0 24 -4 25 -19 6z"/>
</g>
</svg>
